<?xml version="1.0" encoding="UTF-8"?>
<svg id="Layer_1" data-name="Layer 1" xmlns="http://www.w3.org/2000/svg" viewBox="0 0 505.5 130.42">
  <defs>
    <style>
      .cls-1 {
        font-family: ROGFonts-Regular, 'ROG Fonts';
        font-size: 100px;
      }

      .cls-1, .cls-2 {
        fill: #fbb03b;
      }

      .cls-3 {
        letter-spacing: -.02em;
      }

      .cls-4 {
        letter-spacing: 0em;
      }
    </style>
  </defs>
  <text class="cls-1" transform="translate(0 119.92)"><tspan x="0" y="0">U</tspan><tspan class="cls-4" x="86.6" y="0">p</tspan><tspan class="cls-3" x="173.1" y="0">l</tspan><tspan x="245.2" y="0">oop</tspan></text>
  <path class="cls-2" d="m44.95.03c1.88.44,3.03,1.72,4.13,3.15,7.54,9.87,15.11,19.71,22.66,29.57,1.57,2.05,1.68,4.16.3,6.14-.83,1.2-1.96,1.98-3.46,2-3.15.05-6.3-.02-9.45.03-.97-.07-5.46,1.18-3.86,4.17-.02.42-.02.84-.03,1.25-.1,15.77-.2,31.54-.31,47.31-.02,2.83-1.41,4.74-3.86,5.28-.5.11-1.02.12-1.53.12-3.8-.01-7.6-.16-11.39-.04-4,.13-5.64-2.54-5.61-5.64.17-15.77.18-31.54.38-47.31.05-3.67-2.3-5.41-5.32-5.4-2.34,0-4.69.04-7.02-.05-1.59-.06-3.06-.87-3.97-2.17-2.42-3.47-1.36-4.93-.25-6.31,7.86-9.74,15.72-19.48,23.56-29.24,1.14-1.42,2.36-2.66,4.36-2.92l.66.03Z"/>
</svg>